# xmcd
#
# Track frame offsets:
# 150
# 9706
# 22621
# 38307
# 52143
# 72713
# 91076
# 105851
# 125435
# 140923
# 155034
# 173526
# 187300
# 228138
# 241726
#
# Disc length: 3425 seconds
#
#
# Revision: 0
# Processed by: cddbd v1.5.1PL0 Copyright (c) Steve Scherf et al.
# Submitted via: FreeRIP 2.91 
#
DISCID=bb0d5f0f
DTITLE=Len Monahan - Voice of the Guitar
DYEAR=2002
DGENRE=Alternative
TTITLE0=Sometimes
TTITLE1=Another Road
TTITLE2=Gates of Home
TTITLE3=Voice of the Guitar
TTITLE4=It's Not the Same
TTITLE5=Shenandoah
TTITLE6=Through the Streets of Pamplona
TTITLE7=Take it Easy
TTITLE8=Marionette
TTITLE9=I'll Get You
TTITLE10=I'm an Arsonist
TTITLE11=B.B. Sandbone
TTITLE12=Cyote Moon
TTITLE13=Being Alone for Christmas
TTITLE14=Christmas Lullaby
EXTD=Hotlink Records
EXTT0=live for Hotlink Records
EXTT1=pre-radio version
EXTT2=Ambionic Sound
EXTT3=Len Monahan Productions
EXTT4=Len Monahan Productions
EXTT5=live at San Mateo fair
EXTT6=Ambionic Sound
EXTT7=World Airwave Music
EXTT8=World Airwave Music
EXTT9=Ambionic Sound
EXTT10=Ambionic Sound
EXTT11=Ambionic Sound
EXTT12=live at San Mateo Fair
EXTT13=World Airwave Music
EXTT14=World Airwave Music
PLAYORDER=
